<?xml version="1.0" encoding="utf-8"?>
<!-- Generator: Adobe Illustrator 27.2.0, SVG Export Plug-In . SVG Version: 6.00 Build 0)  -->
<svg version="1.1" id="Capa_1" xmlns="http://www.w3.org/2000/svg" xmlns:xlink="http://www.w3.org/1999/xlink" x="0px" y="0px"
	 viewBox="0 0 662.7 580.9" style="enable-background:new 0 0 662.7 580.9;" xml:space="preserve">
<style type="text/css">
	.st0{fill:#FFFFFF;}
</style>
<g>
	<path class="st0" d="M85.9,293.5c22-1.1,43.1-2.9,64.2-3.1c24.4-0.2,38.4,13.3,38.6,37.4c0.4,58.4,0.5,116.9-0.1,175.3
		c-0.2,24.5-13.9,36.9-38.6,37.2c-10.4,0.1-20.9,0.1-31.3,0c-39.4-0.4-72.1-28.7-72.8-67.9c-1.1-58.4-2.6-117.2,3-175.1
		C61.4,168.9,159.6,65.4,287.1,44.5c88.9-14.5,168.5,10,235.8,69.5c64.5,57.1,94.7,130.4,94.8,216.2c0,44.6,0.1,89.2,0,133.7
		c-0.1,45.9-30.7,76.3-76.6,76.4c-10.4,0-20.9,0.2-31.3-0.1c-19.2-0.6-31.6-11.4-34.7-30.2c-0.9-5.3-1-10.9-1-16.3
		c-0.1-52.5-0.1-105,0-157.5c0.1-33.7,12.3-46.4,45.5-45.9c19.1,0.3,38.3,2.1,57.3,3.3c0.9-78.9-82.8-201.4-219.2-215.5
		C203.6,62.2,97.1,186,85.9,293.5z M510.5,415.3c0,25.7,2.5,89.9,11.7,89.2c8.4-0.6,16.9,0.1,25.3-0.2c18.7-0.7,33.1-12.5,33.6-31
		c1.1-38.5,1-77.2,0-115.7c-0.5-17.9-12.4-28.5-30.7-30.6c-8.8-1-17.8-0.4-26.7-1.2c-10.5-0.9-13.7,3.8-13.4,13.9
		C510.8,364.9,510.5,390.1,510.5,415.3z M152.7,415.7c0-25.8-0.2-51.5,0.1-77.3c0.1-8.5-2.5-13.2-11.8-12.6
		c-9.4,0.6-18.9,0-28.2,1.2c-18.6,2.3-30.4,13.6-30.9,32.3c-1,37.6-1,75.3,0.1,113c0.6,19.1,15.3,31.4,34.5,32.1
		c7.9,0.3,15.9-0.5,23.8,0.2c10,0.8,12.9-3.6,12.7-13C152.4,466.3,152.7,441,152.7,415.7z"/>
</g>
</svg>
