<?xml version="1.0" encoding="utf-8"?>
<!-- Generator: Adobe Illustrator 27.2.0, SVG Export Plug-In . SVG Version: 6.00 Build 0)  -->
<svg version="1.1" id="Capa_1" xmlns="http://www.w3.org/2000/svg" xmlns:xlink="http://www.w3.org/1999/xlink" x="0px" y="0px"
	 viewBox="0 0 828.35 568.31" style="enable-background:new 0 0 828.35 568.31;" xml:space="preserve">
<g>
	<path d="M289.41,534.14c-52.77,0-105.54,0.05-158.32-0.01c-56.81-0.07-91.98-35.26-92.03-92.33c-0.1-105.33-0.09-210.66,0-315.99
		c0.04-54.62,33.2-90.3,88.14-90.85c108.43-1.08,216.89-1.06,325.32-0.02c52.84,0.51,86.37,35.8,86.58,88.67
		c0.43,106.48,0.41,212.97,0.02,319.46c-0.21,57.31-35.27,91.04-93.14,91.06C393.8,534.16,341.6,534.14,289.41,534.14z
		 M290.55,76.09c-55.68,0-111.36-0.08-167.04,0.03c-28.25,0.06-43.82,15.54-43.86,44.12c-0.14,109.4-0.14,218.8,0,328.2
		c0.04,29.07,16.06,44.94,45.34,44.97c109.62,0.12,219.24,0.14,328.87-0.01c29.02-0.04,43.98-15.01,44.01-43.76
		c0.1-109.98,0.1-219.95,0-329.93c-0.03-29.43-14.25-43.52-43.75-43.58C399.59,76.01,345.07,76.09,290.55,76.09z"/>
	<path d="M584.7,200.14c-8.72-31.27-5.48-40.92,19.02-54.63c36.38-20.35,72.79-40.69,109.61-60.24
		c39.57-21.01,75.97,1.21,75.99,45.85c0.05,102.41,0.06,204.83-0.01,307.24c-0.03,44.64-37.02,66.66-76.21,45.33
		c-35.61-19.38-71.02-39.14-106.55-58.68c-27.85-15.31-30.11-20.58-22.25-56.35c6.38,3.08,12.41,5.71,18.18,8.84
		c42.26,22.91,84.43,45.99,126.7,68.88c15.74,8.52,19.37,6.55,19.4-11.18c0.14-100.1,0.14-200.2,0.01-300.29
		c-0.02-18.41-4.32-20.76-20.55-11.94c-42.73,23.23-85.39,46.58-128.12,69.81C595.04,195.43,589.91,197.63,584.7,200.14z"/>
</g>
</svg>
