<?xml version="1.0" encoding="utf-8"?>
<!-- Generator: Adobe Illustrator 27.2.0, SVG Export Plug-In . SVG Version: 6.00 Build 0)  -->
<svg version="1.1" id="Capa_1" xmlns="http://www.w3.org/2000/svg" xmlns:xlink="http://www.w3.org/1999/xlink" x="0px" y="0px"
	 viewBox="0 0 696.2 553.6" style="enable-background:new 0 0 696.2 553.6;" xml:space="preserve">
<style type="text/css">
	.st0{fill:#FFFFFF;}
</style>
<g>
	<path class="st0" d="M599.5,224.9c0,52,0,104.1,0,156.1c0,22.1-7.3,31.8-29.3,36.7c-71.2,16-142.5,32.1-214,47.1
		c-10.2,2.1-21.8-0.3-32.3-2.5c-65-14.2-129.8-29-194.7-43.5c-24.6-5.5-32.8-15.5-32.8-41.3c-0.1-101.9-0.1-203.8,0-305.7
		c0-33.3,16-47.8,48.5-43.1c65.4,9.5,130.6,19.7,196,29.1c8.4,1.2,17.3,0.1,25.8-1.2c64.4-9.7,128.8-19.8,193.2-29.6
		c19.9-3,39.4,15.6,39.5,37.7C599.6,118.2,599.5,171.6,599.5,224.9z M331.8,433.2c0.8-3.6,1.4-5.2,1.4-6.9
		c0.1-109.8,0-219.6,0.2-329.4c0-8-3.4-10.2-10.8-11.3c-60.6-9.1-121.1-18.4-181.6-28c-12.4-2-15.4,4.2-15.3,14.8
		c0.1,101.5,0.1,202.9-0.1,304.4c0,8.9,3.5,12.1,11.7,13.7c20.2,4,40.2,8.7,60.2,13.1C241.9,413.5,286.2,423.2,331.8,433.2z
		 M363.6,431.6c2.4,0.5,3.3,1,4.1,0.8c64.4-14.1,128.8-28.5,193.4-42.3c9-1.9,9.4-7,9.4-14.1c-0.1-100.1-0.1-200.1-0.1-300.2
		c0-2.2-0.1-4.4-0.2-6.6c-0.2-9.5-4.6-13.2-14.2-11.7c-59.6,9.2-119.1,18.5-178.8,27.1c-11.4,1.7-14.8,6.2-14.8,17.6
		c0.4,105.3,0.2,210.6,0.3,315.9C362.7,422.8,363.3,427.4,363.6,431.6z"/>
	<path class="st0" d="M63.1,241.2c0,52-0.1,104.1,0,156.1c0.1,31.7,14,48.4,45.1,54.6c76.8,15.2,153.4,31.2,230.4,45
		c14.7,2.6,31.1-1.9,46.4-4.8c68.3-13.1,136.4-26.9,204.6-40.4c26.3-5.2,40.4-20.5,43-47c0.6-6.1,0.8-12.2,0.8-18.3
		c0-100.1,0-200.2,0-300.4c0-4.4,0.1-8.7,0.2-13.1c0.3-9,5.3-13.8,14-14c8.8-0.2,13.8,4.7,14.5,13.5c0.4,4.8,0.6,9.6,0.6,14.4
		c0,101.9,0,203.7,0,305.6c0,52.8-23.7,79.9-76.1,89.8c-74.7,14.2-149.1,30.2-224,43.4c-16.9,3-35.5-0.8-52.8-4.1
		c-71.3-13.5-142.5-27.6-213.5-42.2c-38.3-7.9-62.7-37.3-63-76.6c-0.6-108-0.3-216-0.2-324c0-14.2,4.9-19.8,15.6-19.3
		c12.7,0.5,14.2,9,14.1,19.1C63,132.8,63.1,187,63.1,241.2z"/>
</g>
</svg>
