<?xml version="1.0" encoding="utf-8"?>
<!-- Generator: Adobe Illustrator 27.2.0, SVG Export Plug-In . SVG Version: 6.00 Build 0)  -->
<svg version="1.1" id="Capa_1" xmlns="http://www.w3.org/2000/svg" xmlns:xlink="http://www.w3.org/1999/xlink" x="0px" y="0px"
	 viewBox="0 0 642.9 559.9" style="enable-background:new 0 0 642.9 559.9;" xml:space="preserve">
<style type="text/css">
	.st0{fill:#FFFFFF;}
</style>
<g>
	<path class="st0" d="M321.4,529.9c-67.6,0-135.3,0.1-202.9,0c-52.7-0.1-81.8-29.1-81.9-81.5c0-112.4,0-224.7,0-337.1
		c0-50.6,29.2-81,79.7-81.1C253.1,29.8,389.8,30,526.6,30c53.1,0,80.3,37.7,79.7,81.3c-1.4,112.8-0.4,225.7-0.5,338.5
		c0,50.9-29,79.9-80.1,80C457.7,530,389.5,529.9,321.4,529.9z M285,360.4c4.1-3.5,6.8-5.5,9.2-7.9c45.7-45.1,91.4-90.2,137.1-135.3
		c20.2-19.9,43.8-20.3,64-0.7c19.9,19.2,39.3,38.9,59.2,58.2c3.9,3.8,8.5,6.9,14.7,11.7c0.3-7.6,0.7-12,0.7-16.4
		c0-54.4,0.1-108.8,0-163.3c0-27.8-12-39.9-39.6-39.9c-139.2-0.1-278.3-0.1-417.5,0c-28.3,0-40.2,12.3-40.2,41.1
		c-0.1,77.7,0,155.3,0,233c0,4.7,0.5,9.5,1,17.8c6.3-5.4,10.4-8.5,14.1-12c19.4-19,38.6-38.2,58.2-57.1
		c22.6-21.8,44.4-21.6,67.2,0.5C236.8,313,260.3,336.3,285,360.4z M207.6,492.7c5,0.6,6.9,1.1,8.8,1.1c106.1,0,212.2,0.2,318.4,0
		c21.6,0,34.8-13.6,35.1-35.6c0.4-32.2-0.8-64.4,0.5-96.5c0.6-15.5-5.1-26-15.4-36.2c-25.2-25-50-50.6-74.9-76
		c-14.4-14.7-17.7-14.9-32.3-0.2C377.3,320,307,390.8,236.7,461.7C227.4,471.1,218.6,481,207.6,492.7z M260,387.4
		c-25-25.6-48.3-49.7-71.9-73.4c-6.4-6.5-13.5-4.8-19.5,1.4c-30.1,30.6-60.3,61.1-90,92.1c-3.3,3.5-5.3,9.5-5.6,14.5
		c-0.8,12.8-0.6,25.7-0.1,38.5c0.5,13.4,6.6,26.7,19,29.1c19.9,3.8,40.8,2.6,61.3,3.3c1.5,0,3.2-2.1,4.6-3.5
		C191.2,456,224.8,422.5,260,387.4z"/>
	<path class="st0" d="M196.9,209.1c-29.5-0.2-53.6-24.7-53.2-54.1c0.4-30.1,24.3-53.5,54-52.9c29.5,0.6,53.4,25.3,52.6,54.6
		C249.7,185.6,225.5,209.4,196.9,209.1z M213.8,154.3c-0.3-9.9-7.1-16.3-17.2-16.2c-10.3,0.1-17.6,8-16.9,18.3
		c0.6,9.6,8.1,16.6,17.5,16.4C207.6,172.6,214.1,165.3,213.8,154.3z"/>
</g>
</svg>
