<?xml version="1.0" encoding="utf-8"?>
<!-- Generator: Adobe Illustrator 27.2.0, SVG Export Plug-In . SVG Version: 6.00 Build 0)  -->
<svg version="1.1" id="Capa_1" xmlns="http://www.w3.org/2000/svg" xmlns:xlink="http://www.w3.org/1999/xlink" x="0px" y="0px"
	 viewBox="0 0 828.3 568.3" style="enable-background:new 0 0 828.3 568.3;" xml:space="preserve">
<style type="text/css">
	.st0{fill:#FFFFFF;}
</style>
<g>
	<path class="st0" d="M289.4,534.1c-52.8,0-105.5,0-158.3,0c-56.8-0.1-92-35.3-92-92.3c-0.1-105.3-0.1-210.7,0-316
		c0-54.6,33.2-90.3,88.1-90.8c108.4-1.1,216.9-1.1,325.3,0c52.8,0.5,86.4,35.8,86.6,88.7c0.4,106.5,0.4,213,0,319.5
		c-0.2,57.3-35.3,91-93.1,91.1C393.8,534.2,341.6,534.1,289.4,534.1z M290.5,76.1c-55.7,0-111.4-0.1-167,0
		c-28.2,0.1-43.8,15.5-43.9,44.1c-0.1,109.4-0.1,218.8,0,328.2c0,29.1,16.1,44.9,45.3,45c109.6,0.1,219.2,0.1,328.9,0
		c29,0,44-15,44-43.8c0.1-110,0.1-219.9,0-329.9c0-29.4-14.2-43.5-43.8-43.6C399.6,76,345.1,76.1,290.5,76.1z"/>
	<path class="st0" d="M584.7,200.1c-8.7-31.3-5.5-40.9,19-54.6c36.4-20.3,72.8-40.7,109.6-60.2c39.6-21,76,1.2,76,45.9
		c0,102.4,0.1,204.8,0,307.2c0,44.6-37,66.7-76.2,45.3c-35.6-19.4-71-39.1-106.5-58.7c-27.8-15.3-30.1-20.6-22.2-56.4
		c6.4,3.1,12.4,5.7,18.2,8.8c42.3,22.9,84.4,46,126.7,68.9c15.7,8.5,19.4,6.5,19.4-11.2c0.1-100.1,0.1-200.2,0-300.3
		c0-18.4-4.3-20.8-20.5-11.9c-42.7,23.2-85.4,46.6-128.1,69.8C595,195.4,589.9,197.6,584.7,200.1z"/>
</g>
</svg>
