<?xml version="1.0" encoding="utf-8"?>
<!-- Generator: Adobe Illustrator 27.2.0, SVG Export Plug-In . SVG Version: 6.00 Build 0)  -->
<svg version="1.1" id="Capa_1" xmlns="http://www.w3.org/2000/svg" xmlns:xlink="http://www.w3.org/1999/xlink" x="0px" y="0px"
	 viewBox="0 0 453.8 555.7" style="enable-background:new 0 0 453.8 555.7;" xml:space="preserve">
<style type="text/css">
	.st0{fill:#FFFFFF;}
</style>
<g>
	<path class="st0" d="M39.3,277.2c0-59.6,0-119.2,0-178.9C39.4,53.6,65,28,110,28c46.2,0,92.4,0.2,138.5-0.1
		c16.6-0.1,30.1,5.3,42,17.3c35.4,36,71.2,71.6,107.2,107.1c11.3,11.1,16.8,23.9,16.8,39.6c-0.1,89.2,0.2,178.4-0.1,267.6
		c-0.2,43.9-25.6,68.4-69.6,68.4c-78.9,0-157.7,0-236.6,0c-43.4,0-68.8-25.4-68.9-69.2C39.2,398.2,39.3,337.7,39.3,277.2z
		 M227.2,58.5c-5.4,0-9.6,0-13.9,0c-36.6,0-73.2,0-109.8,0C80.6,58.6,69.1,70,69.1,93c-0.1,123.6-0.1,247.2,0,370.8
		c0,22.8,11.7,34.2,34.7,34.2c81.9,0,163.8,0,245.7,0c24.3,0,34.5-10.4,34.5-35.1c0-77.9,0-155.8,0-233.7c0-4.2-0.4-8.4-0.7-14.2
		c-5.4,0-10.1,0-14.8,0c-29.6,0-59.2,0.1-88.9,0c-32.5-0.1-51.2-18.6-51.3-50.9c-0.1-29.6,0-59.2-0.1-88.8
		C228.3,70.1,227.7,65,227.2,58.5z M258.4,63.2c-0.1,0.9-0.7,4.2-0.7,7.4c-0.1,30.8-0.1,61.7,0,92.5c0,16.9,4.8,21.6,21.7,21.7
		c30.4,0.1,60.9,0.1,91.3,0c3.9,0,7.8-0.8,8.8-0.9C339.1,143.6,298.5,103.2,258.4,63.2z"/>
</g>
</svg>
