<?xml version="1.0" encoding="utf-8"?>
<!-- Generator: Adobe Illustrator 27.2.0, SVG Export Plug-In . SVG Version: 6.00 Build 0)  -->
<svg version="1.1" id="Capa_1" xmlns="http://www.w3.org/2000/svg" xmlns:xlink="http://www.w3.org/1999/xlink" x="0px" y="0px"
	 viewBox="0 0 662.68 580.89" style="enable-background:new 0 0 662.68 580.89;" xml:space="preserve">
<g>
	<path d="M85.93,293.48c21.98-1.13,43.09-2.94,64.21-3.1c24.42-0.18,38.36,13.27,38.55,37.43c0.45,58.44,0.48,116.9-0.06,175.34
		c-0.23,24.54-13.92,36.89-38.62,37.18c-10.42,0.12-20.85,0.12-31.27,0.01c-39.37-0.42-72.1-28.7-72.83-67.94
		c-1.08-58.36-2.57-117.16,3.03-175.1C61.36,168.87,159.6,65.4,287.1,44.54c88.92-14.55,168.5,9.95,235.8,69.52
		c64.52,57.12,94.74,130.35,94.84,216.17c0.05,44.58,0.1,89.16-0.02,133.74c-0.12,45.9-30.67,76.28-76.56,76.38
		c-10.42,0.02-20.86,0.25-31.27-0.08c-19.17-0.6-31.56-11.38-34.7-30.21c-0.89-5.34-1-10.85-1.01-16.28
		c-0.07-52.5-0.11-105.01-0.02-157.51c0.06-33.69,12.34-46.41,45.49-45.93c19.14,0.28,38.27,2.14,57.34,3.29
		c0.87-78.86-82.84-201.42-219.18-215.5C203.64,62.19,97.14,185.96,85.93,293.48z M510.46,415.33c0,25.73,2.54,89.85,11.75,89.19
		c8.38-0.6,16.86,0.11,25.27-0.21c18.65-0.72,33.07-12.51,33.59-31c1.1-38.55,1.03-77.17-0.01-115.72
		c-0.48-17.86-12.44-28.51-30.65-30.65c-8.82-1.04-17.83-0.41-26.7-1.16c-10.55-0.89-13.66,3.75-13.44,13.86
		C510.82,364.86,510.45,390.1,510.46,415.33z M152.72,415.72c0-25.77-0.18-51.54,0.1-77.3c0.1-8.53-2.49-13.18-11.83-12.59
		c-9.4,0.6-18.92,0.03-28.23,1.17c-18.55,2.27-30.45,13.57-30.92,32.32c-0.96,37.63-1.04,75.33,0.07,112.95
		c0.57,19.13,15.34,31.41,34.46,32.06c7.94,0.27,15.93-0.45,23.82,0.19c10.01,0.82,12.85-3.57,12.69-12.98
		C152.44,466.28,152.73,441,152.72,415.72z"/>
</g>
</svg>
