<?xml version="1.0" encoding="utf-8"?>
<!-- Generator: Adobe Illustrator 27.2.0, SVG Export Plug-In . SVG Version: 6.00 Build 0)  -->
<svg version="1.1" id="Capa_1" xmlns="http://www.w3.org/2000/svg" xmlns:xlink="http://www.w3.org/1999/xlink" x="0px" y="0px"
	 viewBox="0 0 614.5 549.4" style="enable-background:new 0 0 614.5 549.4;" xml:space="preserve">
<style type="text/css">
	.st0{fill:#FFFFFF;}
</style>
<g>
	<path class="st0" d="M306.9,524.7c-68.4,0-136.7,0.1-205.1,0c-50-0.1-79.2-29.5-79.2-79.9c-0.1-113.2,0-226.4,0-339.7
		c0-49.4,28.7-79.8,77.9-80c137.7-0.5,275.5-0.5,413.2,0c49.4,0.2,78.2,30.4,78.2,79.5c0,113.7,0,227.4,0,341.2
		c0,49.4-29.2,78.8-78.4,78.9C444.6,524.8,375.7,524.7,306.9,524.7z M307.3,490.4c69.9,0,139.7,0,209.6,0
		c27.9,0,41.1-12.9,41.2-40.7c0.1-116.2,0.1-232.4,0-348.6c0-28.7-12.4-41.2-40.6-41.2c-140.2-0.1-280.4-0.1-420.6,0
		c-28.1,0-40.5,12.8-40.5,41.3c0,115.7,0,231.4,0,347.1c0,29.2,12.5,42,41.3,42.1C167.6,490.5,237.5,490.4,307.3,490.4z"/>
	<path class="st0" d="M128.7,106.3c13.8,0,25.6,11.6,25.8,25.3c0.2,14.3-10.6,25.1-25.3,25.2c-15.1,0.2-25.3-9.8-25.4-24.7
		C103.8,117.6,114.7,106.3,128.7,106.3z"/>
	<path class="st0" d="M368.5,132c-0.1,14.4-11,25-25.6,24.9c-14.9-0.1-24.8-10.1-24.8-25.2c0-14.8,10.6-25.6,25-25.4
		C356.9,106.4,368.6,118.3,368.5,132z"/>
	<path class="st0" d="M261.1,132.3c-0.2,14.6-10.8,24.8-25.6,24.5c-14.5-0.3-25.1-11.3-24.8-25.6c0.4-14.1,12-25.4,25.8-25
		C250.6,106.6,261.2,117.9,261.1,132.3z"/>
</g>
</svg>
