<?xml version="1.0" encoding="utf-8"?>
<!-- Generator: Adobe Illustrator 27.2.0, SVG Export Plug-In . SVG Version: 6.00 Build 0)  -->
<svg version="1.1" id="Capa_1" xmlns="http://www.w3.org/2000/svg" xmlns:xlink="http://www.w3.org/1999/xlink" x="0px" y="0px"
	 viewBox="0 0 571.2 557.8" style="enable-background:new 0 0 571.2 557.8;" xml:space="preserve">
<style type="text/css">
	.st0{fill:#FFFFFF;}
</style>
<g>
	<path class="st0" d="M281.3,530.5C143.1,530.5,31.5,419.5,31.5,281.7C31.6,143.3,139.8,30.2,282,30.5
		c141.1,0.3,249,111.2,250,250.6C532.9,419.1,420.1,530.6,281.3,530.5z M281,344.8c26.6,0,53.3-0.4,79.9,0.2
		c9.3,0.2,14.2-2.7,14.3-12.1c0.1-34.9,0.2-69.8,0.1-104.7c0-8.3-4.3-11.7-13.3-11.6c-53.7,0.4-107.4,0.4-161.2,0
		c-9.1-0.1-12.8,3.3-12.8,11.9c0.1,34.9,0.2,69.7,0.1,104.6c0,10.1,5.2,12,14.2,11.9C228.6,344.5,254.8,344.8,281,344.8z
		 M196.3,185.9c57.3,0,113.1,0,171.3,0c-4.8-17.1-7.9-32.5-13.5-46.9c-10.9-28.3-24.4-55.2-51-72.7c-14.3-9.3-30-10.7-42.6,0.5
		c-14.1,12.5-27.1,27.1-37.2,42.9C208.7,132.5,200.6,158.3,196.3,185.9z M196.2,375.6c5.2,29,13.6,56,29.1,79.9
		c8.9,13.7,19.8,26.7,32,37.5c14.9,13.1,32.4,12.9,48.1,0.6c37.8-29.6,51.4-71.9,61.2-118C309.1,375.6,253.4,375.6,196.2,375.6z
		 M405.6,216.9c-1.3,41.7-2.8,80.6-3.4,119.6c0,2.7,6.2,7.7,9.7,7.8c24.4,0.7,48.9,0.8,73.2,0c4-0.1,10.3-5,11.4-8.8
		c10-36.5,9.8-73.2,0.1-109.8c-0.9-3.4-5-8.4-7.7-8.4C460.3,216.7,431.6,216.9,405.6,216.9z M160.5,217c-29.7,0-58.3-0.2-87,0.4
		c-2.6,0.1-6.4,5.5-7.3,9c-8.9,36.2-8.9,72.6,0.1,108.8c0.9,3.8,6.5,9,10,9.1c25.3,0.8,50.7,0.7,76,0c2.8-0.1,7.8-5.3,7.8-8.2
		C160.6,297.3,160.5,258.6,160.5,217z M211.4,487.4c-22.7-33.2-35.7-69.4-44.7-107.3c-0.6-2.5-6.6-5.2-10.2-5.3
		c-15.3-0.6-30.6-0.3-45.9-0.3c-8.8,0-17.6,0-27,0C93.7,418.8,171,486.6,211.4,487.4z M352.2,73.5c22.8,34.6,35.6,70.5,44.1,108.1
		c0.5,2.2,4,5.3,6.1,5.4c25.5,0.4,51,0.2,77,0.2C469.5,142.6,398.3,80.4,352.2,73.5z M479,374.7c-25.5,0-50.7-0.3-75.8,0.4
		c-2.7,0.1-6.6,6-7.6,9.8c-9.3,34.7-20,68.7-40.7,98.7c-0.8,1.1-0.5,2.9-0.8,4.7C397.6,481.4,470.4,418.9,479,374.7z M208.6,74
		C164,80.6,92.3,144.1,84.3,187.2c25.9,0,51.4,0.3,76.9-0.4c2.4-0.1,5.7-5.8,6.9-9.4c3.7-11.6,5.3-24,9.9-35.2
		C187.4,119.3,198.2,97,208.6,74z"/>
</g>
</svg>
